<mxfile host="65bd71144e" modified="2021-01-24T08:52:11.432Z" agent="5.0 (Macintosh; Intel Mac OS X 10_15_7) AppleWebKit/537.36 (KHTML, like Gecko) Code/1.52.1 Chrome/83.0.4103.122 Electron/9.3.5 Safari/537.36" version="13.10.0" etag="tJNZyttno2tyvipgE0hA" type="embed">
    <diagram id="ac2KH5wYWW6GkGxpKfza" name="Page-1">
        <mxGraphModel dx="1170" dy="860" grid="1" gridSize="10" guides="1" tooltips="1" connect="1" arrows="1" fold="1" page="1" pageScale="1" pageWidth="850" pageHeight="1100" background="#F1FAEE" math="0" shadow="0">
            <root>
                <mxCell id="0"/>
                <mxCell id="1" parent="0"/>
                <mxCell id="82" value="AWS Cloud" style="points=[[0,0],[0.25,0],[0.5,0],[0.75,0],[1,0],[1,0.25],[1,0.5],[1,0.75],[1,1],[0.75,1],[0.5,1],[0.25,1],[0,1],[0,0.75],[0,0.5],[0,0.25]];outlineConnect=0;gradientColor=none;html=1;whiteSpace=wrap;fontSize=12;fontStyle=0;shape=mxgraph.aws4.group;grIcon=mxgraph.aws4.group_aws_cloud_alt;strokeColor=#232F3E;fillColor=none;verticalAlign=top;align=left;spacingLeft=30;fontColor=#232F3E;dashed=0;rounded=0;sketch=0;" vertex="1" parent="1">
                    <mxGeometry x="310" y="160" width="510" height="550" as="geometry"/>
                </mxCell>
                <mxCell id="83" value="" style="rounded=1;arcSize=10;dashed=0;strokeWidth=2;sketch=0;fontColor=#ffffff;fillColor=none;strokeColor=#00CC00;" vertex="1" parent="1">
                    <mxGeometry x="325" y="260" width="485" height="440" as="geometry"/>
                </mxCell>
                <mxCell id="84" value="" style="dashed=0;html=1;shape=mxgraph.aws3.virtual_private_cloud;fillColor=#F58536;gradientColor=none;dashed=0;rounded=0;sketch=0;strokeColor=#457B9D;fontColor=#1D3557;" vertex="1" parent="1">
                    <mxGeometry x="350" y="245" width="52" height="36" as="geometry"/>
                </mxCell>
                <mxCell id="85" value="" style="outlineConnect=0;dashed=0;verticalLabelPosition=bottom;verticalAlign=top;align=center;html=1;shape=mxgraph.aws3.route_53;fillColor=#F58536;gradientColor=none;rounded=0;sketch=0;strokeColor=#66FF66;fontColor=#1D3557;" vertex="1" parent="1">
                    <mxGeometry x="542.5" y="130" width="50" height="50" as="geometry"/>
                </mxCell>
                <mxCell id="89" value="&lt;font color=&quot;#ff6666&quot;&gt;Public Subnet&lt;/font&gt;" style="outlineConnect=0;gradientColor=none;html=1;whiteSpace=wrap;fontSize=12;fontStyle=0;shape=mxgraph.aws4.group;grIcon=mxgraph.aws4.group_subnet;verticalAlign=top;align=left;spacingLeft=30;fontColor=#879196;dashed=0;rounded=0;sketch=0;strokeColor=#FF6666;fillColor=#FFCCCC;" vertex="1" parent="1">
                    <mxGeometry x="456.43" y="410" width="230" height="110" as="geometry"/>
                </mxCell>
                <mxCell id="90" value="" style="outlineConnect=0;dashed=0;verticalLabelPosition=bottom;verticalAlign=top;align=center;html=1;shape=mxgraph.aws3.ec2;fillColor=#F58534;gradientColor=none;rounded=0;sketch=0;strokeColor=#FF6666;fontColor=#1D3557;" vertex="1" parent="1">
                    <mxGeometry x="542.5" y="435" width="57.87" height="60" as="geometry"/>
                </mxCell>
                <mxCell id="91" value="&lt;font color=&quot;#0066cc&quot;&gt;Private Subnet&lt;/font&gt;" style="outlineConnect=0;gradientColor=none;html=1;whiteSpace=wrap;fontSize=12;fontStyle=0;shape=mxgraph.aws4.group;grIcon=mxgraph.aws4.group_subnet;verticalAlign=top;align=left;spacingLeft=30;fontColor=#879196;dashed=0;rounded=0;sketch=0;fillColor=#99CCFF;strokeColor=#0066CC;" vertex="1" parent="1">
                    <mxGeometry x="453.39" y="580" width="228.21" height="110" as="geometry"/>
                </mxCell>
                <mxCell id="92" value="" style="outlineConnect=0;dashed=0;verticalLabelPosition=bottom;verticalAlign=top;align=center;html=1;shape=mxgraph.aws3.rds;fillColor=#2E73B8;gradientColor=none;rounded=0;sketch=0;strokeColor=#0066CC;fontColor=#1D3557;" vertex="1" parent="1">
                    <mxGeometry x="546.4300000000001" y="605" width="50" height="60" as="geometry"/>
                </mxCell>
                <mxCell id="93" value="" style="outlineConnect=0;dashed=0;verticalLabelPosition=bottom;verticalAlign=top;align=center;html=1;shape=mxgraph.aws3.application_load_balancer;fillColor=#F58534;gradientColor=none;rounded=0;sketch=0;strokeColor=#0066CC;fontColor=#1D3557;" vertex="1" parent="1">
                    <mxGeometry x="542.5" y="340" width="50" height="50" as="geometry"/>
                </mxCell>
                <mxCell id="94" value="" style="outlineConnect=0;dashed=0;verticalLabelPosition=bottom;verticalAlign=top;align=center;html=1;shape=mxgraph.aws3.certificate_manager_2;fillColor=#759C3E;gradientColor=none;rounded=0;sketch=0;strokeColor=#0066CC;fontColor=#1D3557;" vertex="1" parent="1">
                    <mxGeometry x="630" y="345" width="50" height="40" as="geometry"/>
                </mxCell>
                <mxCell id="96" value="" style="aspect=fixed;html=1;points=[];align=center;image;fontSize=12;image=img/lib/mscae/Docker.svg;rounded=0;sketch=0;strokeColor=#0066CC;fillColor=#99CCFF;" vertex="1" parent="1">
                    <mxGeometry x="123.5" y="580" width="50" height="41" as="geometry"/>
                </mxCell>
                <mxCell id="97" value="" style="shape=image;imageAspect=0;aspect=fixed;verticalLabelPosition=bottom;verticalAlign=top;rounded=0;sketch=0;strokeColor=#0066CC;fillColor=#99CCFF;fontColor=#1D3557;image=data:image/png,iVBORw0KGgoAAAANSUhEUgAAAgAAAAIACAMAAADDpiTIAAAAA3NCSVQICAjb4U/gAAAACXBIWXMAAMinAADIpwFvdAvIAAAAGXRFWHRTb2Z0d2FyZQB3d3cuaW5rc2NhcGUub3Jnm+48GgAAAwBQTFRF////AAAAAAAAAAAAAAAAAAAAAAAAAAAAAAAAAAAAAAAAAAAAAAAAAAAAAAAAAAAAAAAAAAAAAAAAAAAAAAAAAAAAAAAAAAAAAAAAAAAAAAAAAAAAAAAAAAAAAAAAAAAAAAAAAAAAAAAAAAAAAAAAAAAAAAAAAAAAAAAAAAAAAAAAAAAAAAAAAAAAAAAAAAAAAAAAAAAAAAAAAAAAAAAAAAAAAAAAAAAAAAAAAAAAAAAAAAAAAAAAAAAAAAAAAAAAAAAAAAAAAAAAAAAAAAAAAAAAAAAAAAAAAAAAAAAAAAAAAAAAAAAAAAAAAAAAAAAAAAAAAAAAAAAAAAAAAAAAAAAAAAAAAAAAAAAAAAAAAAAAAAAAAAAAAAAAAAAAAAAAAAAAAAAAAAAAAAAAAAAAAAAAAAAAAAAAAAAAAAAAAAAAAAAAAAAAAAAAAAAAAAAAAAAAAAAAAAAAAAAAAAAAAAAAAAAAAAAAAAAAAAAAAAAAAAAAAAAAAAAAAAAAAAAAAAAAAAAAAAAAAAAAAAAAAAAAAAAAAAAAAAAAAAAAAAAAAAAAAAAAAAAAAAAAAAAAAAAAAAAAAAAAAAAAAAAAAAAAAAAAAAAAAAAAAAAAAAAAAAAAAAAAAAAAAAAAAAAAAAAAAAAAAAAAAAAAAAAAAAAAAAAAAAAAAAAAAAAAAAAAAAAAAAAAAAAAAAAAAAAAAAAAAAAAAAAAAAAAAAAAAAAAAAAAAAAAAAAAAAAAAAAAAAAAAAAAAAAAAAAAAAAAAAAAAAAAAAAAAAAAAAAAAAAAAAAAAAAAAAAAAAAAAAAAAAAAAAAAAAAAAAAAAAAAAAAAAAAAAAAAAAAAAAAAAAAAAAAAAAAAAAAAAAAAAAAAAAAAAAAAAAAAAAAAAAAAAAAAAAAAAAAAAAAAAAAAAAAAAAAAAAAAAAAAAAAAAAAAAAAAAAAAAAAAAAAAAAAAAAAAAAAAAAAAAAAAAAAAAAAAAAAAAAAAAAAAAAAAAAAAAAAAAAAAAAAAAAAAAAAACyO34QAAAP90Uk5TAAECAwQFBgcICQoLDA0ODxAREhMUFRYXGBkaGxwdHh8gISIjJCUmJygpKissLS4vMDEyMzQ1Njc4OTo7PD0+P0BBQkNERUZHSElKS0xNTk9QUVJTVFVWV1hZWltcXV5fYGFiY2RlZmdoaWprbG1ub3BxcnN0dXZ3eHl6e3x9fn+AgYKDhIWGh4iJiouMjY6PkJGSk5SVlpeYmZqbnJ2en6ChoqOkpaanqKmqq6ytrq+wsbKztLW2t7i5uru8vb6/wMHCw8TFxsfIycrLzM3Oz9DR0tPU1dbX2Nna29zd3t/g4eLj5OXm5+jp6uvs7e7v8PHy8/T19vf4+fr7/P3+6wjZNQAAHhNJREFUGBntwQmAjfX+BvDnzG6MYWzJml0SXZItLfbqIuLaSlr8yy1Cl0KL5JJCRSURSroIUaiupcWeEncKCYOxZhkMs5/z/JGEOefMeZfv+77nzO/zARRFURRFURRFUUKbq1Dp6jff2a5Hn8EvvzHpnbcnTnjzjdfHjX3t1TGjhvzz/ra331SpWCSUkBNXvdkDz05csCE51cM8pR3+9ftFEwd3u7V8BJTgVqTRwyOn//eXk9THvX/dnLFPdagVBSXYXNvsibdWHKQ5srfPf7lbnRgowaDE3f+ati6F5nP/tnDU/XUjoThW5M1PfrSTstJXv9qhFBTHKX3fa6vSaJGkj/veHAHFIaIbDZy7j1ZL+25Mu0JQbHZd1zc3ZNIu2d8OreeCYpOCbd/ZTdv9PqtnKSiWu37gsgw6xeYxzaKgWCau3aQ9dJgz87vGQbFAzaeXZ9KR0uZ3jYMiKa79u3vpZGnzu8ZBkVH44WWZdL60+V3joJgt6t5P0hks0ua0dEExj+v2904wuCQ9VwaKOWqP2ccglLO4fQQUo8o/m8igdXBUZSgGFH3sOw+DmmdFt2gouoS1W5jJEHDkheJQNIvvv4uhIm1SVSiaVJ2QylDi/rQJlEC5Wi3xMOSs7xQOJQCxj29laNr1ZEEoeajw6gmGruMvxEPx47b5OQxtx56JheJdZK+fmA8c6R8DJbfwXknMJ/b3iYJyJVeX7cxHkh6OgHKZtpuZz+zoEQblohbrmQ8lNodyXuOvmU8tqAil7hLmX+kjCyJ/qznPw3xtf3fkY5U+dDPfW1MP+VTsq1lUSPfUksiP2u6h8oeTA8KR35T7lMpfNt6IfCV8YCqVy2WNiEL+0XAzlav90hD5RJFJHiq5uV+PRX7Q4zAV73Y3R8irtpyKb1OLIKRFD8+g4s/BtghhjXZQycvbMQhRYcOyqeQt8QaEpDJfUwlI2uMIQe2PUwnUgqIIMTFvU9Eg+XaElBsSqWjiHhGO0NEnjYpWayogRBT9lIoOKfcgJNyeTEUX93MuBL3wl91U9FpQCEGu3BoqBvxSFUGt/iEqhpy8G0GsUxoVg9zDXAhWQzxUjJsfh6AUNZ2KKX6piiBU9BsqJkm5A0Gn6g4qpsnsgiBzx3EqJvIMRFB5KIuKuca7EDRco6mYbnY0gkSBeVQEfF0YQaHURioiEssiCJTdSUVIci04XrldVMSk3AaHK7+biqC0FnC0CklURKW3gYNdt4eKsIx74FgV91IRl9kODlVpHxULZHWEI1VOpmKJ7M5woCrJVCyS0w2OU3U/FcvkPACHqXaAioXcveAo1Q9SsZS7Exyk/EEqFstsAceIT6RiudRb4BARy6jY4Nj1cIb3qdgiuTycYBgVm2wvDvt181Cxy8ZCsFvTDCr2WRENe1U7TsVO88Nhp+I7qdjrHdgoZi0Vu/WFbVxzqdgupxXsMoaKA6TUgD0eo+IIvxWFHZrlUHGGFRGwXslDVJxiEizn+oqKc/SF1Z6l4iA5rWCtRtlUnCSlBqyUsIeKs/xaCBZaQMVpZsM6T1Bxnj6wyk0ZVJwnoy6sEfcrFSfaGQ9LfEjFmT6BFR6k4lRPQl6NM1ScKvNmSIvZQhO5U/bvyqBimt1FIGwizfPLE8UBhFVq89Tby/Z5mM94Dq75aMRDd9S//a5B22iaBZDVxEPTfFkQl4lt8sznJ5gvJM0f+8RdNWLwl7vO0iz9ICnyF5pmXSSu5qr1+McnGNLOLu1XDbk1T6dJ0mtA0DCaxtMAXkU0m7CPIerncS2j4d0gmmV9OMRUTadpPoZvdUfsZKhJ+eTRsvAt/iTNMgRiVtA8LeCPq/XCHIaQHx+Mhn9jaJbMWhDSk+Y5HoE8lBtxiKEhe+6tyFNNmubHCIgofpTmmYa8RXZeyeB3bHQ5BOIQTfMiRMygie5BQGq8mcKg9r9HCyAws2iarL9BQDOa6FQ0AhT7yCYGrcV3ImAP0zz/i4LpYnbQRLOgQfstDErbWkGDCjTRKJjuZZqpI7Rw/WMbg86pgZHQZCfNk3MLTFYziyZKj4U24T13Mqh4pl0DjSbTRFujYCrXapppHTSL6L2PwWPDLdCsC830LEz1fzTVm9Ah+smDDA6HH3JBuxIemuhMOZjomhSaqgd0KfCvo3S+7HHx0GULzfQJTPQ2zVUVOsW/mkmHW1sbOo2nqVrCNJWzaKoTLuhWZSGd7MT/uaDXPTTV9iiYZRbN9V8Y0SKROqUd3Lp26cfvjBr8WJfWDerUrnVDzRrVq1WtXKlixRub3NWl98Dh46fO/XLtjgzqlTO9JPQrlE1TPQuT1PHQXCNhSPg/j1GLrN3ffjSqz99rJyAwrlINuwx+e3HiaWqT+V4lGLKWpjpTDuZYQpO1g0EJb2YzAKc3TB903y3XuqBTwt/ufW7eLg8Dcvb1MjBoDM01D6ZoSrOVgmHXf0l/UtZMGdC6HEwR37TftJ8y6VfOVz0LwbCeNFkrmGENTbYPZrhnK73xbJ3Rt/m1MFtknV5vrNxPr1KXP1UKZqhPk/0aBePa0mzzYIqwjht4pQOfDmkWD0EF63QeNmPtMV5yMvGTp+qFwySFaLZnYVhYIs32DMxS7/m1Obzg1IrRHcrAIgkN2t97TusbCsFc+2iyU8Vg1AM0XWuYKLZGy1733VopDKHgK5ptPAyKSqLpboLi3Rs0W0YFGNOX5isLxbs+NN0HMCTuCM0XDcW7e2k6940w4nmaLxWKD41pviUwoNgpmm83FB+qUMDt0G8sBWyA4kMhClgH3RLOUsASKL6kU0BH6PUsJcyA4steCtgeDn0i91PCa1B8+YESekOf7hTxDBRf1lBCciR02UgRD0Px5VuKeAh6NKWMdlB8WUkR21zQYQFltITiyzLK6ADtKrkp4z4ovnxBGeuh3RsU8jAUXxZTyJ3QqvBpChkAxZdFFPIltHqaUoZD8WU5pfwN2oTvoZTXofjyA6XMhjadKWYaFF92UUpOZWiyjmLmQ/HlBMW8Cy0aUs5yKD643BSTUQoazKGcjVB8KExBIxC48jmUswOKD9dR0MFIBOwlCjoCxYcmlNQZgXLtpqAMKD48SEkrEahbKao0FO9GUlQNBOg9imoHxbvZFPUGAhNzkqJGQPHuB4pKiUVAOlPWF1C8O0VZDyMgn1PWUShelaCwjQhEiWwKqwDFmzsorT4C0I/SOkHxZiilTUMAfqC0V6B4s4TS0hKQp5oUtxyKF64TFNcXeRpNcSkuKLnVpLx1yEvYPsqrCiW3R2mBishDM1qgG5TcptMCQ5GHGbTAOCi5/UILJMK/2FRa4AMouZ2iFWrBrx60wkwoucTSEqPg11e0wkdQcqlMS+yGPwk5tMLHUHJpQGs0hB9daYk3oeRSitaYAD9m0hItoOR2kJY4HA6fwo7RCgcioeT2NK3RAj41oiU6QfEiOpGWmAafRtIKs6F4VeMMrXAsDL78RAtsjYPi3f20RCP4UIYWOF0Dii9TaIWR8OH/aIHOUHyK2UILbIIPiyhvHBQ/qp2mBUrDq+gzFPdtBBR/utICj8Cr1hR3sBQU/yZR3nx4NYHSsm+FkofoTRR3OhLe7KK0YVDyVD2T4prBixqUtiMKSt7GUNxYePE0pd0NJQCFDlLaNnixksI+hxKQByiuInKJz6KsjCpQAuJaS2lPIJdOFPZvKAG62U1h85HLJMpKLgglUFMp7Ahy2UJZXaEErORJCquKq8S7KeobKBr0p7CHcJVWlFUfigYR2ynrfVxlOEWtgqLJI5T1K66yjKI6QtEk5ghllcQVwk5TUlI4FG1epKwOuEIdihoARaMS6RQ1Dlf4JyWdjoei1XsU9T2u8BElvQlFs+s9lJQdi8slUZC7MhTtllBUM1zmWkpaCEWH5hT1Ai5zHyXdAUWPzZS0GJcZT0H7XVD0eIyS9uEy6ynobSi6lHRTUgIuicmioBZQ9PmGkm7DJU0p6EQEFH36UlJfXPIMBX0IRaeyHgqagks+o6AOUPRaT0EbcMlhykmLhaLXIAo6G4aLEihoIRTdKlNSNVzUmIIehKLfZgrqhIseoZycolD0e56CRuCisZSzBYoB9ShoIS5aQjlToBgQkUY5u3HRbsrpDcWINZTjicMFBdyUUweKEeMpqDYuuIlyzoZDMaIrBbXDBd0oZxUUQypRUD9cMIJyxkEx5ijljMcFcymnCxRjllDOAlyQSDkVoRjzAuVswnnhmRRzFIpBbSjnBM6rSjkroBhUnILicU47ynkfilGnKac2znmGcp6HYtTPlNMO58ygnAegGLWUcvrhnA2UcxsUoyZRznicc5xyykMxagjlLAAQRTnZ4VCM6kE5GwCUo5wkKIbdSjnbAdxMOV9DMaw85RwE8HfKmQ7FsPAcijkD4FHKGQ7FuL2UEw4Mo5ynoBj3A+UUASZSzqNQjPuOcsoDn1BONyjGfUk5tYDvKKcdFOM+pZzGwA7KaQbFuFmU0wY4TTkNoBg3lXL+gQIUVAuKcRMo51FUpKCKUIx7hXIGohEFlYRi3IuUMxz3UlAsFOMGUc54PE5BYVCMe4JypmA4BUVDMa4v5czBJAoqDMW4QZTzBWZSUEkoxr1AOWvwHwoqD8W40ZSTiHkUVBWKca9Tzl4soqAboRj3LuWkYCkF3QzFuA8o5yyWUVATKMbNoZwT+IaCmkMx7jPKOYjVFHQ3FOOWUU4SNlBQVyjGraKc7dhEQQOgGJdIOVuQSEGvQTHuKOV8j+0UNAuKYZEeylmFXRS0EophZShoOfZS0HYohtWjoCU4SEGnoRh2DwUtwFFKKgjFqEco6D84SUlVoRg1jIJm4Cwl3Q7FqIkUNBmnKKkbFKPmUtAE7KekF6AYtYqCXsNWSpoNxahDFDQS6ylpCxSDClPSc/gvJWWEQzGmASUNwjyKqgrFmAcpqR+mUVR7KMa8QkmP4Q2KGgLFmIWU1BMjKGomFGO2U1JLDKKoH6EYEplNSdfjMYo664JiRA2KikM3yqoBxYgOlJQC3ENZj0IxYiQlJQJNKesDKEaspKSlQB3K2gXFgIgzlDQZqEhhpaHoV5eingOKUdg/oOjXl6J6AVEUNgGKfv+hqOYAjlPWT1D020tR1QBspCx3PBS9ylBWLIC5FNYail6dKeo4znmFwsZC0WsCRW3GOY9R2A4oeu2mqM9xTitKqwFFn1qU9Q7OqUJpg6HoM5SyhuKcSDeFrYaizwbKegDn7aUwdwkoelzroaw7cN43lNYLih69KawyzptGaQug6LGYsjwxOO95SjsTA0W7gumUtQMX3E9xbaFo15HCZuOCxhS3AIp2iylsEC64luKySkLRqpybwprjAlcaxT0NRauXKC0Bf9hKcVuhaBSeTGG7cdEiymsERZu2lDYPFz1PeVOhaPM5pQ3FRW0oLzUOihblciitDS4qRgs8DEWL4RRXAn/aRXkboWgQc4jSknHJbFqgBZTAPUVxi3DJQFpgBZSAxRykuBdxSVNaoQGUQPWjvL/jkoI5tMBCKAGKOUB5pfGX/9ECnhugBKYv5R3GZd6nFWZCCUj0Acpbgss8TitkV4QSiCdpgZdxmbq0xPtQAlD4EC3QAZeJTKcVPPWh5O0tWqECLreelljvgpKX+m5a4DCuMIHWeAhKHsJ/pBU+xBUeoDUOF4biXz9aohuuUJUWGQ/Fr9KnaQV3MVxpF62RXROKP5/QEutwlQm0yNdhUHz7O63xAq7SmlYZCsWnMkdpjfq4SvRZWiS7MRQfIlbRGr+7cLXPaJW9CVC8G02LzEQuj9Eyn0Lx6i4PLdIduZSjdZ6E4kXZY7SIuxhy20LLZNSDkkvEalplPbwYRescqQblauNpmRfhxa200J6yUK40kNa5BV6EH6eFthaDcrkHPLTM72Hw5mNa6fs4KH+5O5vWmQmvetBSK6Kh/KnRWVqoO7wq5qalFoRD+UPN47SQuzi8W0trTXNBOa98Mq20Hj4Mo8XGQzmnWhIt9SJ8uJ5WmxEJpf5RWutm+LKBVvs6Afldq1Raazt86kPLba+E/K17Fi02BD4lZNByRxsjP+vvocXcZeHbHFovvQvyLdcrtNxX8OMu2sAzFPlU8S9ovW7wI/wA7TAtGvlR42Ra72QB+DOGtthyI/Kfp7Npg/fg1/W0R8ZAF/KXhEW0RWP4t542WVkO+Un9JNriV+ThcdolpRvyjeiXMmmPochDkXTa5uMiyB+a76BN3OWQl9m0T3IL5AMlZ9I2/0We2tBOn1ZDiHP1PkH7dEeewg/QTlkTiyOU1VpNG50qgLy9QnudfCYGoaryBzm00xQEoJqHNtvTw4VQVGFKNu3VBIFYSNttvAMhp8zbmbTZDgSkER1gXedwhJJr3kin7YYhMN/RCfYMiEeoqPXuWdrPXQ6BuYf67Z/eo9c7iR6a4dT4CggBEZ2+oSN8hgC5/kddzi7tXxMXFGs/bmMOjcuZ2xBB7prn99MhGiNQ91Mz9w+j7ozC5Yr330IT/DjgWgSvxrMy6RTfIWARe6jJyfe7FIcXdScep3HuZb3iEYzqjt5JB7kLgetHTVLLwoeYAUdpgvS57aMQXOqO3klH2QwNYo9RkwXwKf6lVJrhxOQW0QgWdUfvpNN0gxbDqU1b+FZygpumOLu0//VwvJJdp+6h8+wKhxbFzlKTvQXhR5PdNMu+qZ2LwrHi7h63xUNHehzavEltXoM/habTPO71L99dHI5TsOmLq7LoVIdioE2FbGqSXRd+3XeMpto5q98tUXCIwncM/Girm072DLSaSW12xMGvittptsz1b3avHg5bFW/17NydHjrdyXhodaOH2nwI/xK+pYTM//3nuQ7VwmG56NrdRi7cx+AwGtotpEZjXfArahbFZGyeNbR9lTDEwgKRNf/x0rxtOQwe6ddAuxrZ1OijSPjlGk1Z6avqQdg1z8/5OYvB5h3o8Ra12lAN/o2jrGmQ5lrE4JNTEXoUP0mtzv4T/k2hqMYQF7+dQWcW9BlM7b4sDX/C5lDQVligxmkGm9rQJzqJ2h1vC38iv6Ccp2GF9h4Gl8XQqyt1cA+CP0X2UEpWCVhiBIPLrdDLtZ56TI+CH42zKeQTWMO1mMFkCfRrQl1WlYAfwyikDSxSeB+DR1Z1GPAJddl9HXwLW0kR+8JglS4MHq/DiMqZ1GVPRfhW+iglDId1VjFYHCsCQ8ZRn72V4Ns9FOCuAOvUdTNI9IExCcepz77K8O11mu8rWGkqg0NiOAzqT52Sy8GnqE00XWdY6ZpTDAotYFTkb9Rpcxx8qpZKkx2NgqX+xWCwCMZ1oF6fhcGnnjTZeFgrKonOl1kFJlhMvcbBtw9prpqw2GA632swQ5mT1Ks3fIrbQTOthdVKZNLpjsTDFI9Sr/Tq8OlvGTTRI7Dcx3S63jDJcuq1Jgw+9aN5UuNgudvocJvDYJLrzlCvAfBtEU0zBTbYSme7A6bpS73SqsCnosk0S0PYoB8dbT7M41pFvb5zwaemOTTHz7BDkTQ6WEYlmKhaOvXqC99eoDn6wxZL6GCjYapB1OtMJfjkep9myCwGWwygcx0qBFOFf0+9Vrrgk2sqTTAH9qhN5+oIk9XKpF594JtrCo1rCXu4jtCpPoTpXqBeqaXhm+s9GpXkgk0+pkPtKwzTRW6hXuPhh2syDXoBdnmEzuRpDgF1s6nT2eLww/UuDXGXg10q0JkmQMQo6jUS/rgm0YilsE8SnWh7AYiI+p46nYyHP64BGdSvI+zzOR0o5xYIue4EdRoCrwreiT/csJl6HYmEfV6lA42AmHYe6vN7LLy4dpPn5TBcEDXGTX2eg40eovP8GAk5r1Gnp5Bb2CqSSxPwh9uSqMf3EbBRAzpOek0IilhNfZKjkEtvnrc5AX+In0HtVifATvF0nIEQVfYo9emNXMqc5HkbCuGiDj9Tm6MDomGv/XSYb8Igq7WHuuwMRy4P8oJvw/GnVl8ycKdGxMNuy+gsp6+DtJepT3fk9jnPW43L3DAlnYE4+G6bKNhvMp3lYYgLX0ldfnYhlxJ7eU5rXKHEi0eYh62jG7jgCCPpKJ/BAqUOUZd7kVvdNHImrhbddvS3afTBvWZwNThGfzrJ0WtghTtzqMdGeNGdBxLgTWT9p+Yk8wpnNs/9d68mReEk99NJ7oM1nqMureDFa3fBt3LN7u7Y7aE+/Z8dPuLR20vDgVrTQd6CRVxfUo9vkbe/VUYu75WHY9Wjc3wdAasUT6YeTZGHsH+7uXVMY1zhJu6vhdyun9IL9qtAx0gqDus0zqQOXyIPY3nBtv4J+Ms0MqUprlJmag45AbaLpVOcqQMr9aQet8GvnvxT+gd1cVHxdJLpHXCFe1J43kTYzkOH6ARrDacOu+LgT8J0/mlbVVzUj+e5H8Nfwl7y8A/DYLccOsPLsNqH1OFd+NdmHy/4ojD+9A3/MByXlD3OPySWht0y6QiLXLBa1NfUoTX8K/jM7yTHhuGSZF40ORx/ap7D89YkwHbpdIJfCsF6Cduo3f4iyEPBfy1rh8v8xIuSyuGSp3jOkljY7wwd4EQV2KHiEWo3Exrdmc4LNpXCZaaRMyPgAKdpv5yWsEeDNGrXERrV38JzFhXC5aLXvu6CE6TQfgNhl44eana0CrSq/erSnrhKQTjDcdruA9jnaWq3pyxCyO+024Zo2OgdaretOELHYdrsYGnYKXwJtfsxHiHjAO2V0RD2ivuJ2n1bAKEimfbqBbuVSaZ2SyIRIvbQVi/DfnVOU7svEhAadtNO4+AEt52hdrtvQkj4jTZ6B85wZxq1S3sQoeBX2meGCw7RMp06TIpC8NtO28wOh2PclUkd1pdF0PuVdlkUAQdpm0UdTg6ORpDbQZt8FQ1H6ZBNPfZ0dyGo/UZ7fFMADvOPHOqy8TYEs99oi3VxcJzubuqzsCaC107aYVMROFBPN3Va/VBBBKldtMHPxeFIj3ioV+rUxghKu2m9HaXgUI/TgG2DaiD4JNFySeXgWH1pyOE5/7zBhaCyh1bbXwkONoBGHZ3Xt2kZF4LFXlrsSHU42mCaIX3bkgn929WuVLZE4ZgwONleWmtfTTjcY26aLOdsypF9O3/5acN3y79a8e3q9T9s/nn7zj37Dx87mZqe/QbstY+W2lIajtcxgxaaCHsl00rL4xEE7jhF67wNe+2nhWZGIijcdJiWmQR7HaB1RrkQJCrvpFUmw14HaZWcPgge1/xEi0yBvQ7RImfbIZjEf01rvA97HaI1jjZAcImeT0tMh70O0xI7qyDYhE2mFT6AvY7QChtKIAiNoAVmwl6/0wKfxyIoPeGmuFmw11HKmxyOINUlk9Jmw17HKG4YgleLVAqbC3sdp7CsBxHMbtpLWfNgr+OUldwEwa3EdxS1APY6QVGLiyHYRb5LSQthrxQKyv6XCyGgTxblfAZ7naScvQ0RGm7/nWIWw16nKGZRAkJFhc2UshT2Ok0hWQMQQmI/oZAvYa9Uyth9C0KK6+ksivgv7JVKEfOLINTc/BslLIe9zlBAZl+EoEIzKeBr2OsszbezHkLTA6k03QrYK42mmxuPUFXlB5rtK9grnSbL6IMQFjXWQ3Mtgb0yaK5fbkJoa3OIploIe2XSTOnDohDqEqbTTPNgr0yaaFkV5Aet99I8s2GvLJrmSA/kE3FveWiWj2CvbJrE814C8o+mv9Ik02GvHJrj51uRr8SMyaEppsBebpohbWgk8pubN9MMk2AvD03wVWXkQ+F9jtG4CbAXjTvcDflU0bdyaNR42ItGeSYXQf5140oa9CrsRYMSmyB/67SHhoyCrVw05OyQSOR3BV5MowEvwVZhNCD9jWugAOWn51C352GrcOqW+U4ZKH+oPttDnYbAVhHUKXtqBSh/qfMZ9RkEW0VSF/fMKlCu1HA59egPW0VSB8+c66HkdudaavckbBVF7T6tDcW7u1dTq8dhq2hqtbQeFN+aLPJQk0dhryxqsrwRFP9qTs+iBg/CXvupwXe3Q8lb2XGpDFgP2OtHBuybllACU2ToEQaoPey1kIE5ObEmlMBFd13uYSCqw15PMhCbeheEolHFEcnMU2YE7FWZeUqf0QCKHmF3zcuif2tgt0T6t2NgUSi6lXh6K/1pC7t1oB/ZC1q6oBjT6P1U+rIJ9ltDXw4MLwPFBHGPrKNXh6vBflWP0BvPso4RUMxSc9xR5nL8RjhBnRTmcnxcVSimiur0hZtXmHktnKHaCl4hZ0nnaCjmu7bnhwd40YHJDeEc3Vfm8KKU+Y+XgiKm4m1dBw5+5N6bXHCWYl2fGf/BhCG9GoRDURRFURRFURTFwf4fR4JTtCVMPyYAAAAASUVORK5CYII=;" vertex="1" parent="1">
                    <mxGeometry x="20" y="430" width="50" height="50" as="geometry"/>
                </mxCell>
                <mxCell id="101" value="" style="outlineConnect=0;dashed=0;verticalLabelPosition=bottom;verticalAlign=top;align=center;html=1;shape=mxgraph.aws3.user;fillColor=#D2D3D3;gradientColor=none;rounded=0;sketch=0;strokeColor=#0066CC;fontColor=#1D3557;" vertex="1" parent="1">
                    <mxGeometry x="30" y="647" width="40" height="53" as="geometry"/>
                </mxCell>
                <mxCell id="102" value="" style="outlineConnect=0;dashed=0;verticalLabelPosition=bottom;verticalAlign=top;align=center;html=1;shape=mxgraph.aws3.users;fillColor=#D2D3D3;gradientColor=none;rounded=0;sketch=0;strokeColor=#0066CC;fontColor=#1D3557;" vertex="1" parent="1">
                    <mxGeometry x="650" y="40" width="50" height="50" as="geometry"/>
                </mxCell>
                <mxCell id="103" value="" style="outlineConnect=0;dashed=0;verticalLabelPosition=bottom;verticalAlign=top;align=center;html=1;shape=mxgraph.aws3.management_console;fillColor=#F58534;gradientColor=none;rounded=0;sketch=0;strokeColor=#0066CC;fontColor=#1D3557;" vertex="1" parent="1">
                    <mxGeometry x="127" y="647" width="43" height="53" as="geometry"/>
                </mxCell>
                <mxCell id="104" value="" style="rounded=0;whiteSpace=wrap;html=1;sketch=0;fontColor=#1D3557;fillColor=none;strokeColor=#1A1A1A;" vertex="1" parent="1">
                    <mxGeometry x="10" y="570.5" width="180" height="159.5" as="geometry"/>
                </mxCell>
                <mxCell id="106" value="developer" style="text;html=1;strokeColor=none;fillColor=none;align=center;verticalAlign=middle;whiteSpace=wrap;rounded=0;sketch=0;fontColor=#1D3557;" vertex="1" parent="1">
                    <mxGeometry x="30" y="700" width="40" height="20" as="geometry"/>
                </mxCell>
                <mxCell id="107" value="開発環境" style="text;html=1;strokeColor=none;fillColor=none;align=center;verticalAlign=middle;whiteSpace=wrap;rounded=0;sketch=0;fontColor=#1D3557;" vertex="1" parent="1">
                    <mxGeometry x="70" y="740" width="50" height="20" as="geometry"/>
                </mxCell>
                <mxCell id="109" value="" style="shape=image;imageAspect=0;aspect=fixed;verticalLabelPosition=bottom;verticalAlign=top;rounded=0;sketch=0;strokeColor=#1A1A1A;fillColor=none;fontColor=#1D3557;image=data:image/png,iVBORw0KGgoAAAANSUhEUgAAAZAAAAGQCAMAAAC3Ycb+AAAAM1BMVEUAAAA0NDM0NDM0NDM0NDM0NDM0NDM0NDM0NDM0NDM0NDM0NDM0NDM0NDM0NDM0NDM0NDO52TkZAAAAEHRSTlMAECAwQFBgcICPn6+/z9/vIxqCigAAC5tJREFUeNrswYEAAAAAgKD9qRepAgAAAAAAAAAAAAAAAAAAAAAAAAAAAAAAAAAAAABg9u5zwVYVhgJwKCIikLz/y57ey2yNBt171vf73tPWSDMGAz5+4+hSyCEvtcrvel3zPDoZ8Gmp8haueVAq4FLpsklbItkCPzfZg9fkyAi4uYlCmcgAxCJaPXuCc6Uuh6yR4DQusxxWI4F9HIhkuMSiYBQJxC6nKo70wK1yNp5JC2YWAy2QBrgqRjLtBxOLmeppJ1jEEk+0B/gmxhbaDiKLuepoI0gyQg+0CSwyBm9KBIoMk8ge8rBPBHm8fiLIwz4R5DE+EeRhYSI9rHex+h0oyTXY0z9AlKs0R38Bz3KZlf4CTS6USQ8TuoVI8JtJrsWO9DCBYBqxVuVyiX6AWdSwGzHgWG5gJfhmlUNarXUptVa++FALW3Rec/T0i5CWJlrdEXzWRaUvgf7FTYVHbw9xpsgl0BtSHTmvY0bn7OgBX2S/QkDZIg5tJB55OLb75iY2PCLmD0iPpo+fxwNi+0laaHhEDJdYnGgvV2QXhz2IdTlCxl7EaJPewoCnsOMUy74UIeEYfiNnmIciERz6zobzhyIRrHybXR76GoqZ3i0/cGSvslXDiDViv+Y6xqyH2shXRxFj1nkjVhxaildxbPLAMuTYDMcnZXBVYTqn2gHnWHnMnIW2G3zKA+KmpcpnveZwzrzecJClfkBCkV/17M54ROh9Cnz0DMsX+RNn9SyCjxPCKo9wcXsblrZweJTMBCeu0jge3YsUgv2K4uQrYFa/ZhcTDi61aS9IuqXygvNFG55151ETllk2Vu3xB16sm4jq6pGGda+Foj4hLDjNMuD01SMZr0QMJP3SNV4VCN6kRAQyTDswMSMQA0cOpLBVvyqQikAQCAJBIAhECYEsB/5fpj2g6itCHZa9VzVoDNgYDjPpR53pokBQY1dwuDjQoh2xaMX7EAte/TPeEYiJrHxAHOrfbbiu+xFPKHIwEnSVbgWf7FhJqm8SGScnFyTCQbmBwao3PhIUF3w3p3v3i6KTxMdurA1t57+mw4fRb5mO925NXf5QwwmtswLObN9QaHOHXi5R/5kp5vSTWl24KdfPSo6HyrkwpzfZpoxuuJlxQjhkSM8ndfLAvVN1bGsVRsn0kGVoRZO/R9aR1xbMaIP5UBrY5S2gl/KpTUnLuIZyK74UHDCO1LN/J3R+nwa05sKdnzymcW+R7QqqR8wTKbJDRPXIZmlAHg1VumLbdNpVu9BxqWRxRKZX7KDsvYtY3iEyM+6W3CdZXsfpK+65362L1T1tLvP+tCHJbnVTJKmL4AFRaGIQiZs7bidWiqLRZ0//FQuLQic4cr99y+Hft3d30Un0GXjRqzlFT9+EmEsTtUrwVZZbCPQNdDGgn9EhyvUawU8LBqybaRiw7iWwXKrS7yCJBX3hFxS5UCT4k2v3mkDAsVykEAyf2BW3XEFCHkjkzXIvSMjjZhLyuJmEPG4mIY8XSsSi6g4iY717L6HLAMXRjeBcK9ON4BUiT7QLTCyGmqedwFcMVzczi40e6UbwkGRHoJVYTlYDHQBukTP1RAeBX+UsnB0dB7EijpuJBXHcjC98bO5wBOdyqYlSiQQW/NJltxUPh6WwNKRxMz6VLhvUJdIg4Kdc30illTnScBBjzmutTb6ptZY8R0/HAAAAAAAAAAAAAAAAAAAAAAAApJWFK4omieb6RaAr+SZf9UB3F+acHNm5w33Pnp+m2ZBb5bNsHki9S9N0dk9xk878yoGk5+lQEOUbdi8cyCq/6s/RT2Z64UC6/OY57iHOLxyI/O45uu2nFw6EDQIxn+78CwdSDeYQ6wXh8n5WWeUZGveV196H9Ge6J2Zaag702oEExtWh9oGoEuFb5IFAyOUuIn3x9AMCwcf8udYm0j6yd4bLkaM6GL1gwBhj6Pd/2ptsVbw9Vh+DcaeUbI3+tifzwQEkYyFyjt7e2Q5OsH3uYsr58ag5L/PUBYSFlk+ha/Tm2sD3cf1sY8k5hulnl7sox3u1XzIJ+Y/PFdOaP83LW9CjqDtzKGJWkx8BIoXOvYPHzoeSHmUBJkt+sp9TXiw7vhTa/fnm/hWB/dvi2FGZqURzEcjrakKr6xly6fHCttB8M1TBAZanBpD8LNpm2LQ28QFW5ytAXEGhtlmriwvODgDRK1EZ+4GECv/Q1yvXTSAQs7aFks1nElbzk4BM26WC3gwkUQcRcIj0CUjruoVseMzlhoRJHQiM3rZaBJLEiJWdAZZ6gIRHv1Aec2RBHwg0M38YN5SBHHiUPMGlFSXnXIkIAAGhGwgduesyMBA1HjV5u5cXq9BQADL/EYc6uERk298+3FIkEQYihJovoSsTYR5MRBnIVLFetAlFbngSkGdLlr5OJ8uxXTwH4h4sNFbIEIEpSub1gZgC4efe91+29QLJlv7EamUU+9RX7gyIqSIEgKA6U8JC26pVB7KKUAqd4dIH5IDVUT/KAKyaEyBZhFIYgMXx6zKyNhAvl3Ce7hMD4SW8iF/YiSUGEq4ItSIFUdi2xxU0nHSAFNlMbmhGIMwjyl9OiDgCYuplobslsTAl97WxVcRvRhVIEA7itKFTE4jDy+6nnit4VgISD0+wPxQy7OlFMOGIJKoCKRCZQCDmW0AidvXc48kEEMG1nAsVU0RMEJHKbhJMEQ0gvjMF0cZ/LLSWrA2J51Y9+PhpswEg4Tj0waL0IhZuBUVisyKQdejLHANxOGTdvS+GGRcsWLSimKNihhGRTREIdNcAEOC6iI4cAmLAEbE32kQSGf4B8YxVA+KF+ntAPK5Y7h6QwDOZggi7s+zYn5/EmqUDJILDHQRSZfeMJWIKIKkjPQoe9dJhtxatoAYkwzweBJLwJEm6CSSP3wEauxJCjXsyPR9SYGQPApnxwXATyOO6ZbmN1btyKgGRzb4LxPGDCkCGu1UfSHoTEIth9c2h4h4D9qJbt18CJL4JCLRJFwhs5f4F0m9/gSz/RSBVvPMpAFF26vygvafMfHVy7rfwolvrLwFSvh3Im6KsfPeo4KQPpOu/NN8FxI95KUGgjHdLxK/L+kB4m+G7gEwQbzYN3u78zSSn0vNUdVpAdhnrm4DwYW97D8g8fhbWysQraUZkJOsA2cXa7wKyDgVyAsh0o7hK4c8hkHk8qQHZY8L0XUDCWE8KL176nRF3Ni4GXgTMWkBmmiLjQGAtWO4BiePnxSdIIcY800URiIFXJkg7qbYNhD40TF3ebAEglkc4Cd1tAyKU+281gIj+il1PhctALKzelC1yACIlzF1pmE7AptNBZhHbxCpARAwSOha2appAGOZmOqobBgLSJTS9Dm+LyAXfedkoshedbuZibDc0iEeuALGViYj04Y03dZa20CST2GkrrKxxDnHZ4OCQIhDDKcqimbnHqQubIZt7N1fl6JRATG28b5uEodT66LZqFIBQEJLtafJ7tReBiIZVf763Ec+2PR0e0BRCDcV6bfMKWyecq1+jgXPEu9YBIKYeT71Dam0+34eOvUIdj7qWLT/hSFuiygo+QUoTAQGbKtRcmGIRSZ4MBISK+hCB/WDLVsXNRc5tzUv8sJTJ2TEQJnL0qJ+WKyTdEhAQuslzgoNENsNAtIjwXB4AQkS4MxgIC5U8BomsRm/7nf0In+sfANJ/Sjybrm+ZsSXUowRX22NOHwgXEOF32zYQDkrJYu/HZV/bQsFsvoaSgSgXO6lxfHOxj3meaHORyYLQ0WInyfxPHwhEjnDmnIGsnaKDQCJCYQYCQiEUBjOxdkiA9AgFJFH0WJkN+ujdD/vu745hhfOXsEvoQegihG5CKCAJm5AANRWD8C8KNs1r2WGss33/0hhSfopb/bDQmMsO45pQG9IOpQ5Uu1Wg4j7sXSw4+V9VqHUf9gtYvNf+3x4cCAAAAAAA+b82gqqqqqqqqqqqqqqqqqqqqqqqqqqqqqqqqqqqqqoqfHkw2HjvZU4AAAAASUVORK5CYII=;" vertex="1" parent="1">
                    <mxGeometry x="5" y="238" width="80" height="80" as="geometry"/>
                </mxCell>
                <mxCell id="110" value="テスト実行" style="text;html=1;fillColor=none;align=center;verticalAlign=middle;whiteSpace=wrap;rounded=0;sketch=0;fontColor=#1D3557;strokeColor=#1A1A1A;" vertex="1" parent="1">
                    <mxGeometry x="85" y="253" width="70" height="20" as="geometry"/>
                </mxCell>
                <mxCell id="111" value="静的コード解析" style="text;html=1;fillColor=none;align=center;verticalAlign=middle;whiteSpace=wrap;rounded=0;sketch=0;fontColor=#1D3557;strokeColor=#1A1A1A;" vertex="1" parent="1">
                    <mxGeometry x="85" y="283" width="90" height="20" as="geometry"/>
                </mxCell>
                <mxCell id="112" value="master" style="text;html=1;fillColor=none;align=center;verticalAlign=middle;whiteSpace=wrap;rounded=0;sketch=0;fontColor=#1D3557;strokeColor=#1A1A1A;" vertex="1" parent="1">
                    <mxGeometry x="95" y="445" width="40" height="20" as="geometry"/>
                </mxCell>
                <mxCell id="113" value="" style="rounded=0;whiteSpace=wrap;html=1;sketch=0;strokeColor=#1A1A1A;fillColor=none;fontColor=#1D3557;" vertex="1" parent="1">
                    <mxGeometry x="10" y="410" width="180" height="90" as="geometry"/>
                </mxCell>
                <mxCell id="114" value="" style="rounded=0;whiteSpace=wrap;html=1;sketch=0;strokeColor=#1A1A1A;fillColor=none;fontColor=#1D3557;" vertex="1" parent="1">
                    <mxGeometry x="10" y="238" width="180" height="82" as="geometry"/>
                </mxCell>
                <mxCell id="115" value="" style="outlineConnect=0;dashed=0;verticalLabelPosition=bottom;verticalAlign=top;align=center;html=1;shape=mxgraph.aws3.internet_gateway;fillColor=#F58536;gradientColor=none;rounded=0;sketch=0;strokeColor=#1A1A1A;fontColor=#1D3557;" vertex="1" parent="1">
                    <mxGeometry x="541.5" y="230" width="47" height="53" as="geometry"/>
                </mxCell>
                <mxCell id="116" value="" style="edgeStyle=orthogonalEdgeStyle;html=1;endArrow=none;elbow=vertical;startArrow=openThin;startFill=0;strokeColor=#545B64;rounded=0;fillColor=#A8DADC;fontColor=#1D3557;" edge="1" parent="1">
                    <mxGeometry width="100" relative="1" as="geometry">
                        <mxPoint x="570" y="120" as="sourcePoint"/>
                        <mxPoint x="646.4300000000001" y="64.5" as="targetPoint"/>
                        <Array as="points">
                            <mxPoint x="570" y="65"/>
                            <mxPoint x="593" y="65"/>
                        </Array>
                    </mxGeometry>
                </mxCell>
                <mxCell id="117" value="Users" style="text;html=1;strokeColor=none;fillColor=none;align=center;verticalAlign=middle;whiteSpace=wrap;rounded=0;sketch=0;fontColor=#1D3557;" vertex="1" parent="1">
                    <mxGeometry x="655" y="90" width="40" height="20" as="geometry"/>
                </mxCell>
                <mxCell id="118" value="Internet Gateway" style="text;html=1;strokeColor=none;fillColor=none;align=center;verticalAlign=middle;whiteSpace=wrap;rounded=0;sketch=0;fontColor=#1D3557;" vertex="1" parent="1">
                    <mxGeometry x="516.23" y="290" width="102.51" height="20" as="geometry"/>
                </mxCell>
                <mxCell id="119" value="ALB" style="text;html=1;strokeColor=none;fillColor=none;align=center;verticalAlign=middle;whiteSpace=wrap;rounded=0;sketch=0;fontColor=#1D3557;" vertex="1" parent="1">
                    <mxGeometry x="547.49" y="390" width="40" height="20" as="geometry"/>
                </mxCell>
                <mxCell id="120" value="ACM" style="text;html=1;strokeColor=none;fillColor=none;align=center;verticalAlign=middle;whiteSpace=wrap;rounded=0;sketch=0;fontColor=#1D3557;" vertex="1" parent="1">
                    <mxGeometry x="635" y="390" width="40" height="20" as="geometry"/>
                </mxCell>
                <mxCell id="121" value="EC2" style="text;html=1;strokeColor=none;fillColor=none;align=center;verticalAlign=middle;whiteSpace=wrap;rounded=0;sketch=0;fontColor=#1D3557;" vertex="1" parent="1">
                    <mxGeometry x="551.4300000000001" y="500" width="40" height="20" as="geometry"/>
                </mxCell>
                <mxCell id="122" value="RDS" style="text;html=1;strokeColor=none;fillColor=none;align=center;verticalAlign=middle;whiteSpace=wrap;rounded=0;sketch=0;fontColor=#1D3557;" vertex="1" parent="1">
                    <mxGeometry x="551.4300000000001" y="670" width="40" height="20" as="geometry"/>
                </mxCell>
                <mxCell id="123" value="" style="edgeStyle=orthogonalEdgeStyle;html=1;endArrow=block;elbow=vertical;startArrow=none;endFill=1;strokeColor=#545B64;rounded=0;fillColor=#A8DADC;fontColor=#1D3557;" edge="1" parent="1" target="89">
                    <mxGeometry width="100" relative="1" as="geometry">
                        <mxPoint x="190" y="454.5" as="sourcePoint"/>
                        <mxPoint x="290" y="454.5" as="targetPoint"/>
                        <Array as="points">
                            <mxPoint x="390" y="455"/>
                            <mxPoint x="390" y="455"/>
                        </Array>
                    </mxGeometry>
                </mxCell>
                <mxCell id="124" value="デプロイ" style="text;html=1;strokeColor=none;fillColor=none;align=center;verticalAlign=middle;whiteSpace=wrap;rounded=0;sketch=0;fontColor=#1D3557;" vertex="1" parent="1">
                    <mxGeometry x="240" y="460" width="50" height="20" as="geometry"/>
                </mxCell>
                <mxCell id="125" value="" style="edgeStyle=orthogonalEdgeStyle;html=1;endArrow=open;elbow=vertical;startArrow=none;endFill=0;strokeColor=#545B64;rounded=0;fillColor=#A8DADC;fontColor=#1D3557;" edge="1" parent="1">
                    <mxGeometry width="100" relative="1" as="geometry">
                        <mxPoint x="95" y="570" as="sourcePoint"/>
                        <mxPoint x="95" y="500" as="targetPoint"/>
                    </mxGeometry>
                </mxCell>
                <mxCell id="126" value="" style="edgeStyle=orthogonalEdgeStyle;html=1;endArrow=open;elbow=vertical;startArrow=none;endFill=0;strokeColor=#545B64;rounded=0;fillColor=#A8DADC;fontColor=#1D3557;exitX=0.5;exitY=0;exitDx=0;exitDy=0;" edge="1" parent="1" source="113">
                    <mxGeometry width="100" relative="1" as="geometry">
                        <mxPoint x="96.05999999999995" y="404.96000000000004" as="sourcePoint"/>
                        <mxPoint x="96" y="320" as="targetPoint"/>
                        <Array as="points">
                            <mxPoint x="96" y="410"/>
                        </Array>
                    </mxGeometry>
                </mxCell>
                <mxCell id="127" value="check" style="text;html=1;strokeColor=none;fillColor=none;align=center;verticalAlign=middle;whiteSpace=wrap;rounded=0;sketch=0;fontColor=#1D3557;" vertex="1" parent="1">
                    <mxGeometry x="102" y="355" width="40" height="20" as="geometry"/>
                </mxCell>
                <mxCell id="128" value="git push" style="text;html=1;strokeColor=none;fillColor=none;align=center;verticalAlign=middle;whiteSpace=wrap;rounded=0;sketch=0;fontColor=#1D3557;" vertex="1" parent="1">
                    <mxGeometry x="100" y="530" width="50" height="20" as="geometry"/>
                </mxCell>
                <mxCell id="129" value="" style="edgeStyle=orthogonalEdgeStyle;html=1;endArrow=open;elbow=vertical;startArrow=none;endFill=0;strokeColor=#545B64;rounded=0;fillColor=#A8DADC;fontColor=#1D3557;exitX=0.5;exitY=1;exitDx=0;exitDy=0;entryX=0.5;entryY=0;entryDx=0;entryDy=0;entryPerimeter=0;" edge="1" parent="1" source="86" target="115">
                    <mxGeometry width="100" relative="1" as="geometry">
                        <mxPoint x="566.99" y="180" as="sourcePoint"/>
                        <mxPoint x="566.99" y="230" as="targetPoint"/>
                    </mxGeometry>
                </mxCell>
                <mxCell id="86" value="Route 53" style="text;html=1;strokeColor=none;align=center;verticalAlign=middle;whiteSpace=wrap;rounded=0;sketch=0;fontColor=#1D3557;" vertex="1" parent="1">
                    <mxGeometry x="537.5" y="180" width="55" height="20" as="geometry"/>
                </mxCell>
                <mxCell id="131" value="" style="edgeStyle=orthogonalEdgeStyle;html=1;endArrow=open;elbow=vertical;startArrow=none;endFill=0;strokeColor=#545B64;rounded=0;fillColor=#A8DADC;fontColor=#1D3557;" edge="1" parent="1">
                    <mxGeometry width="100" relative="1" as="geometry">
                        <mxPoint x="565" y="310" as="sourcePoint"/>
                        <mxPoint x="564.5" y="340" as="targetPoint"/>
                        <Array as="points">
                            <mxPoint x="565" y="325"/>
                        </Array>
                    </mxGeometry>
                </mxCell>
                <mxCell id="132" value="" style="edgeStyle=orthogonalEdgeStyle;html=1;endArrow=block;elbow=vertical;startArrow=none;endFill=1;strokeColor=#545B64;rounded=0;fillColor=#A8DADC;fontColor=#1D3557;entryX=0.5;entryY=0;entryDx=0;entryDy=0;entryPerimeter=0;exitX=0.5;exitY=1;exitDx=0;exitDy=0;" edge="1" parent="1" source="121" target="92">
                    <mxGeometry width="100" relative="1" as="geometry">
                        <mxPoint x="350" y="410" as="sourcePoint"/>
                        <mxPoint x="450" y="410" as="targetPoint"/>
                    </mxGeometry>
                </mxCell>
                <mxCell id="133" value="" style="outlineConnect=0;dashed=0;verticalLabelPosition=bottom;verticalAlign=top;align=center;html=1;shape=mxgraph.aws3.mysql_db_instance;fillColor=#2E73B8;gradientColor=none;rounded=0;sketch=0;strokeColor=#1A1A1A;fontColor=#1D3557;" vertex="1" parent="1">
                    <mxGeometry x="610" y="630.5" width="30" height="34.5" as="geometry"/>
                </mxCell>
            </root>
        </mxGraphModel>
    </diagram>
</mxfile>